<?xml version="1.0" encoding="UTF-8" standalone="no"?>
<!-- Created with Inkscape (http://www.inkscape.org/) -->

<svg
   width="74.846153mm"
   height="74.846153mm"
   viewBox="0 0 74.846153 74.846153"
   version="1.1"
   id="svg5"
   inkscape:version="1.2.1 (9c6d41e410, 2022-07-14)"
   sodipodi:docname="icon_button.svg"
   xml:space="preserve"
   xmlns:inkscape="http://www.inkscape.org/namespaces/inkscape"
   xmlns:sodipodi="http://sodipodi.sourceforge.net/DTD/sodipodi-0.dtd"
   xmlns="http://www.w3.org/2000/svg"
   xmlns:svg="http://www.w3.org/2000/svg"><sodipodi:namedview
     id="namedview7"
     pagecolor="#505050"
     bordercolor="#eeeeee"
     borderopacity="1"
     inkscape:showpageshadow="0"
     inkscape:pageopacity="0"
     inkscape:pagecheckerboard="0"
     inkscape:deskcolor="#505050"
     inkscape:document-units="mm"
     showgrid="false"
     inkscape:zoom="0.73701597"
     inkscape:cx="-199.45294"
     inkscape:cy="366.34213"
     inkscape:window-width="2560"
     inkscape:window-height="1351"
     inkscape:window-x="2551"
     inkscape:window-y="-9"
     inkscape:window-maximized="1"
     inkscape:current-layer="layer1" /><defs
     id="defs2" /><g
     inkscape:label="Ebene 1"
     inkscape:groupmode="layer"
     id="layer1"
     transform="translate(-34.542309,-76.173077)"><path
       style="color:#000000;fill:#000000;-inkscape-stroke:none"
       d="m 71.964844,76.173828 c -20.653368,0 -37.421875,16.768507 -37.421875,37.421872 0,20.65337 16.768507,37.42383 37.421875,37.42383 20.653368,0 37.423826,-16.77046 37.423826,-37.42383 0,-20.653365 -16.770458,-37.421872 -37.423826,-37.421872 z m 0,2.5 c 19.302269,0 34.923826,15.619606 34.923826,34.921872 0,19.30227 -15.621557,34.92383 -34.923826,34.92383 -19.302269,0 -34.921875,-15.62156 -34.921875,-34.92383 0,-19.302266 15.619606,-34.921872 34.921875,-34.921872 z"
       id="path327" /><path
       style="fill:#000000;stroke-width:0.348607"
       d="m 53.932247,125.2405 c -0.61936,-0.26924 -1.441113,-1.00825 -1.826121,-1.64223 l -0.700011,-1.15269 -4.797423,-0.1743 c -4.506916,-0.16375 -4.797422,-0.21653 -4.797422,-0.87152 0,-0.65992 0.264604,-0.70239 4.947163,-0.79381 4.53412,-0.0885 4.964983,-0.15275 5.160594,-0.76906 0.420967,-1.32636 2.20544,-2.44612 3.898152,-2.44612 1.328468,0 1.763547,0.1867 2.762112,1.18526 0.967111,0.96711 1.185267,1.45153 1.185267,2.63188 0,1.92929 -0.755845,3.28657 -2.216126,3.97952 -1.446891,0.68659 -2.135658,0.69671 -3.616185,0.0531 z m 3.392057,-2.27202 c 0.383469,-0.38346 0.697216,-1.01808 0.697216,-1.41026 0,-0.7552 -1.444964,-2.42441 -2.098718,-2.42441 -0.537273,0 -1.857177,0.72207 -2.166386,1.18516 -0.845411,1.26612 0.397435,3.34673 1.999154,3.34673 0.479336,0 1.185267,-0.31374 1.568734,-0.69722 z m 29.00348,2.20571 c -1.417142,-0.6984 -2.1607,-2.06332 -2.1607,-3.96628 0,-3.26005 4.044924,-5.06189 6.578165,-2.93031 0.579664,0.48775 1.149979,1.18944 1.267365,1.55929 0.195611,0.61631 0.626473,0.68052 5.160595,0.76906 4.682561,0.0914 4.947161,0.13389 4.947161,0.79381 0,0.65499 -0.2905,0.70777 -4.797421,0.87152 l -4.797421,0.1743 -0.700782,1.15395 c -0.684794,1.12764 -2.483305,2.16575 -3.72463,2.14989 -0.341696,-0.004 -1.139243,-0.26321 -1.772332,-0.57523 z m 3.417019,-2.20571 c 0.702735,-0.70272 0.903818,-1.94053 0.430423,-2.64951 -0.309211,-0.46309 -1.629112,-1.18516 -2.166387,-1.18516 -0.653754,0 -2.098717,1.66921 -2.098717,2.42441 0,0.98008 1.212177,2.10748 2.265948,2.10748 0.479336,0 1.185266,-0.31374 1.568733,-0.69722 z m -34.625035,-8.59566 c -0.433744,-0.43375 -0.241899,-1.43699 0.315708,-1.65096 0.303282,-0.11634 3.911369,-0.2116 8.017972,-0.2116 h 7.466549 v -5.18643 c 0,-4.18487 0.100979,-5.27023 0.522912,-5.6204 0.417185,-0.34623 0.628637,-0.34623 1.045822,0 0.42193,0.35017 0.522912,1.43553 0.522912,5.6204 v 5.18643 l 7.582214,0.005 c 4.170217,0.003 7.793741,0.1394 8.052272,0.30324 0.258534,0.16384 0.413282,0.59283 0.343884,0.95333 -0.121111,0.62916 -0.797823,0.65906 -16.880354,0.7459 -9.214796,0.0498 -16.860247,-0.0157 -16.989891,-0.14525 z"
       id="path4690" /></g></svg>
