<?xml version="1.0" encoding="UTF-8" standalone="no"?>
<!-- Created with Inkscape (http://www.inkscape.org/) -->

<svg
   width="74.846153mm"
   height="74.846153mm"
   viewBox="0 0 74.846153 74.846153"
   version="1.1"
   id="svg5"
   inkscape:version="1.1 (c68e22c387, 2021-05-23)"
   sodipodi:docname="icon_accuracy.svg"
   xml:space="preserve"
   xmlns:inkscape="http://www.inkscape.org/namespaces/inkscape"
   xmlns:sodipodi="http://sodipodi.sourceforge.net/DTD/sodipodi-0.dtd"
   xmlns="http://www.w3.org/2000/svg"
   xmlns:svg="http://www.w3.org/2000/svg"><sodipodi:namedview
     id="namedview7"
     pagecolor="#505050"
     bordercolor="#eeeeee"
     borderopacity="1"
     inkscape:showpageshadow="0"
     inkscape:pageopacity="0"
     inkscape:pagecheckerboard="0"
     inkscape:deskcolor="#505050"
     inkscape:document-units="mm"
     showgrid="false"
     inkscape:zoom="1.042298"
     inkscape:cx="-5.2768018"
     inkscape:cy="92.583887"
     inkscape:window-width="2560"
     inkscape:window-height="1351"
     inkscape:window-x="2551"
     inkscape:window-y="-9"
     inkscape:window-maximized="1"
     inkscape:current-layer="layer1"
     inkscape:pageshadow="0" /><defs
     id="defs2" /><g
     inkscape:label="Ebene 1"
     inkscape:groupmode="layer"
     id="layer1"
     transform="translate(-34.542309,-76.173077)"><path
       style="color:#000000;fill:#000000;-inkscape-stroke:none"
       d="m 71.964844,76.173828 c -20.653368,0 -37.421875,16.768507 -37.421875,37.421872 0,20.65337 16.768507,37.42383 37.421875,37.42383 20.653368,0 37.423826,-16.77046 37.423826,-37.42383 0,-20.653365 -16.770458,-37.421872 -37.423826,-37.421872 z m 0,2.5 c 19.302269,0 34.923826,15.619606 34.923826,34.921872 0,19.30227 -15.621557,34.92383 -34.923826,34.92383 -19.302269,0 -34.921875,-15.62156 -34.921875,-34.92383 0,-19.302266 15.619606,-34.921872 34.921875,-34.921872 z"
       id="path327" /><path
       style="fill:#000000;stroke-width:0.0570318"
       d="m 71.018397,139.42572 c -6.328387,-0.44045 -11.98298,-2.871 -16.539254,-7.10917 -4.402153,-4.0948 -7.294121,-9.64454 -8.120423,-15.58323 -0.193495,-1.39066 -0.231083,-1.98988 -0.232542,-3.70708 -0.0016,-1.79935 0.04317,-2.47345 0.262871,-3.96371 1.35444,-9.187677 7.573058,-17.082683 16.217141,-20.588863 1.500892,-0.608784 3.477421,-1.190313 5.018808,-1.476614 5.675833,-1.054241 11.568455,-0.245668 16.662004,2.286307 1.199301,0.596175 1.416574,0.753024 1.506702,1.087719 0.124394,0.461974 0.05047,0.572746 -1.279138,1.916588 -1.536545,1.552995 -1.669638,1.661415 -2.039503,1.661415 -0.196253,0 -0.380613,-0.04966 -0.60797,-0.163626 -0.449834,-0.225559 -1.590279,-0.699428 -2.208362,-0.917616 -3.264204,-1.152258 -6.968664,-1.48423 -10.465356,-0.937843 -3.393063,0.530196 -6.720103,1.932681 -9.438781,3.978829 -1.671742,1.2582 -3.406314,3.03601 -4.610653,4.725584 -4.529106,6.35392 -5.180975,14.92391 -1.668368,21.93369 1.049944,2.09527 2.284854,3.80389 3.967485,5.48942 1.770373,1.77342 3.378351,2.93865 5.53384,4.01015 1.817159,0.9033 3.424361,1.46194 5.275451,1.83363 1.459384,0.29306 2.242058,0.37623 3.849654,0.40918 3.542326,0.0726 6.587694,-0.57872 9.695425,-2.07341 5.744488,-2.76287 9.906699,-7.86292 11.457272,-14.03883 0.759379,-3.02461 0.832015,-6.39759 0.204493,-9.49626 -0.330973,-1.63433 -1.041227,-3.73877 -1.701468,-5.04133 -0.102537,-0.20228 -0.150807,-0.38767 -0.150807,-0.57918 0,-0.34994 -0.02326,-0.32186 1.645762,-1.98793 1.395856,-1.393387 1.503099,-1.467007 1.94424,-1.334847 0.321757,0.0964 0.505811,0.351397 1.055166,1.461947 2.818739,5.69818 3.501309,12.15462 1.934773,18.30114 -0.938055,3.6806 -2.63776,7.09367 -5.001751,10.04372 -1.142091,1.42523 -2.582182,2.87629 -3.945015,3.97505 -4.072022,3.28301 -8.685345,5.19895 -13.915787,5.77932 -0.758684,0.0842 -3.610059,0.15428 -4.305909,0.10585 z m 0.598835,-10.55035 c -4.158102,-0.32324 -7.684954,-1.93361 -10.439434,-4.76666 -2.430953,-2.50028 -3.912332,-5.55119 -4.398061,-9.05782 -0.124138,-0.89621 -0.139017,-3.00931 -0.02731,-3.87818 0.438463,-3.41034 1.774082,-6.36035 3.995188,-8.82424 3.950024,-4.381772 9.999593,-6.20645 15.749682,-4.750405 0.835729,0.21163 0.90326,0.238893 1.096165,0.442671 0.17888,0.188953 0.245158,0.473751 0.185165,0.795645 -0.03494,0.187475 -0.243726,0.421475 -1.532544,1.717579 -0.820654,0.8253 -1.578294,1.55414 -1.683646,1.61963 -0.159619,0.0993 -0.259439,0.11531 -0.598835,0.0964 -1.019749,-0.0569 -2.696241,-0.0129 -3.230366,0.0851 -1.866213,0.34183 -3.551321,1.10357 -4.961776,2.24295 -0.551861,0.44579 -1.426569,1.35034 -1.8474,1.91041 -1.072971,1.42798 -1.786477,3.14959 -2.055117,4.95879 -0.116092,0.78185 -0.117038,2.26829 -0.002,3.06314 0.583257,4.02816 3.328546,7.35025 7.162358,8.66724 1.313362,0.45117 2.417292,0.61057 3.89763,0.56279 1.659826,-0.0535 3.01037,-0.3896 4.449405,-1.10709 1.185203,-0.59093 2.043283,-1.2283 3.001647,-2.22956 0.753482,-0.78721 1.256333,-1.4934 1.754633,-2.46414 0.543401,-1.0586 0.84289,-1.94286 1.072063,-3.16528 0.108662,-0.57962 0.160886,-2.37161 0.08607,-2.95372 -0.03434,-0.26718 -0.03695,-0.51728 -0.0065,-0.62734 0.06737,-0.24381 3.153033,-3.37964 3.382147,-3.43715 0.305862,-0.0768 0.659669,0.006 0.861568,0.2018 0.202316,0.19609 0.353159,0.64781 0.590755,1.76909 0.308046,1.45379 0.41534,3.67006 0.244341,5.04732 -0.413389,3.3295 -1.766904,6.35332 -3.930378,8.78067 -2.558046,2.87004 -6.004256,4.68685 -9.845351,5.19037 -0.669619,0.0877 -2.421777,0.15273 -2.970129,0.1101 z m 0.355419,-11.31533 c -1.840035,-0.22677 -3.389699,-1.60988 -3.865662,-3.45018 -0.161978,-0.62629 -0.162691,-1.59278 -0.0017,-2.22425 0.326425,-1.2799 1.207499,-2.38266 2.371245,-2.96787 0.498893,-0.25088 0.894154,-0.36397 1.95113,-0.55825 0.257566,-0.0473 0.642532,-0.16951 0.85548,-0.27148 0.364829,-0.1747 0.855598,-0.65308 8.503205,-8.288537 5.857497,-5.848202 8.188664,-8.211632 8.377024,-8.49295 0.397005,-0.592935 0.529802,-1.084724 0.587752,-2.176638 0.05025,-0.946771 0.13434,-1.337593 0.43325,-2.013485 0.33525,-0.758062 0.594409,-1.048089 3.92502,-4.392591 1.790661,-1.798128 3.325048,-3.305903 3.409745,-3.350624 0.271511,-0.143345 0.546862,-0.104748 0.757828,0.106222 0.184728,0.184728 0.188045,0.197292 0.222156,0.841218 0.01906,0.359533 0.06188,1.513447 0.09518,2.564258 0.0333,1.050822 0.08746,2.013187 0.120343,2.138603 0.07977,0.30422 0.512683,0.737539 0.817803,0.818559 0.12542,0.03329 1.11345,0.08765 2.19563,0.120884 1.08219,0.0332 2.23607,0.07562 2.56419,0.09435 0.57928,0.03301 0.60204,0.03943 0.78419,0.221616 0.21105,0.211042 0.24966,0.486351 0.1063,0.757899 -0.0446,0.08467 -1.55249,1.61909 -3.35062,3.409747 -3.717519,3.702062 -3.803952,3.773793 -5.008808,4.156746 -0.395197,0.125614 -0.653387,0.162946 -1.397282,0.202023 -1.091876,0.05735 -1.58321,0.189911 -2.176638,0.587255 -0.281323,0.188364 -2.644748,2.51953 -8.492942,8.377005 -7.520111,7.53207 -8.115837,8.14272 -8.279473,8.48675 -0.192391,0.4045 -0.35625,0.97464 -0.35625,1.23955 0,0.32953 -0.230271,1.07881 -0.495419,1.61204 -0.23042,0.46339 -0.35232,0.62488 -0.842281,1.11583 -0.512598,0.51362 -0.635872,0.6047 -1.171703,0.86571 -0.860279,0.41903 -1.758052,0.57915 -2.638756,0.47059 z"
       id="path307" /></g></svg>
