<?xml version="1.0" encoding="UTF-8" standalone="no"?>
<!-- Created with Inkscape (http://www.inkscape.org/) -->

<svg
   width="74.846153mm"
   height="74.846153mm"
   viewBox="0 0 74.846153 74.846153"
   version="1.1"
   id="svg5"
   inkscape:version="1.2.1 (9c6d41e410, 2022-07-14)"
   sodipodi:docname="incon_flexibility.svg"
   xml:space="preserve"
   xmlns:inkscape="http://www.inkscape.org/namespaces/inkscape"
   xmlns:sodipodi="http://sodipodi.sourceforge.net/DTD/sodipodi-0.dtd"
   xmlns="http://www.w3.org/2000/svg"
   xmlns:svg="http://www.w3.org/2000/svg"><sodipodi:namedview
     id="namedview7"
     pagecolor="#505050"
     bordercolor="#eeeeee"
     borderopacity="1"
     inkscape:showpageshadow="0"
     inkscape:pageopacity="0"
     inkscape:pagecheckerboard="0"
     inkscape:deskcolor="#505050"
     inkscape:document-units="mm"
     showgrid="false"
     inkscape:zoom="0.73701598"
     inkscape:cx="172.31648"
     inkscape:cy="126.18451"
     inkscape:window-width="731"
     inkscape:window-height="877"
     inkscape:window-x="162"
     inkscape:window-y="1072"
     inkscape:window-maximized="0"
     inkscape:current-layer="layer1" /><defs
     id="defs2" /><g
     inkscape:label="Ebene 1"
     inkscape:groupmode="layer"
     id="layer1"
     transform="translate(-34.542309,-76.173077)"><path
       style="color:#000000;fill:#000000;-inkscape-stroke:none"
       d="m 71.964844,76.173828 c -20.653368,0 -37.421875,16.768507 -37.421875,37.421872 0,20.65337 16.768507,37.42383 37.421875,37.42383 20.653368,0 37.423826,-16.77046 37.423826,-37.42383 0,-20.653365 -16.770458,-37.421872 -37.423826,-37.421872 z m 0,2.5 c 19.302269,0 34.923826,15.619606 34.923826,34.921872 0,19.30227 -15.621557,34.92383 -34.923826,34.92383 -19.302269,0 -34.921875,-15.62156 -34.921875,-34.92383 0,-19.302266 15.619606,-34.921872 34.921875,-34.921872 z"
       id="path327" /><path
       style="fill:#000000;stroke-width:0.135767"
       d="m 63.34048,137.95308 c -0.910718,-0.57219 -0.878917,-0.18851 -0.803644,-9.69608 0.03735,-4.71795 0.08687,-8.8131 0.110038,-9.10032 l 0.04212,-0.52222 -1.900733,-0.57197 c -2.250137,-0.67711 -2.853252,-0.93556 -4.169662,-1.78681 -1.971307,-1.27473 -3.859073,-3.57524 -4.673423,-5.69521 l -0.389052,-1.01281 -1.924978,-0.002 c -1.605882,-0.001 -1.962091,-0.0388 -2.148867,-0.22558 -0.12314,-0.12314 -0.198193,-0.3217 -0.166784,-0.44125 0.100589,-0.38286 5.133298,-9.035784 5.354758,-9.206632 0.140737,-0.108574 0.293028,-0.121707 0.448214,-0.03865 0.292577,0.156589 5.429643,9.026832 5.429643,9.375442 0,0.39806 -0.432079,0.53499 -1.688159,0.53499 -0.639619,0 -1.162942,0.0516 -1.162942,0.11471 0,0.25653 1.129929,1.83881 1.731866,2.42519 0.708546,0.69024 1.736548,1.3903 2.525888,1.72011 0.80844,0.33779 3.770601,1.1978 3.850482,1.11792 0.03979,-0.0398 0.299704,-0.58551 0.577591,-1.21271 1.126932,-2.54355 3.127899,-5.31804 5.150164,-7.14108 l 1.098347,-0.99015 -0.0016,-1.71664 c -9.75e-4,-1.01852 -0.07732,-2.00098 -0.187773,-2.41581 -0.464605,-1.744932 -1.662028,-3.156751 -3.42815,-4.041958 -1.127958,-0.565349 -1.119791,-0.573612 -1.163795,1.177252 -0.03577,1.423016 -0.05746,1.530106 -0.317462,1.567296 -0.278027,0.0398 -8.836766,-4.785405 -9.34005,-5.265664 -0.196261,-0.187279 -0.220153,-0.297777 -0.109213,-0.505073 0.07811,-0.145941 1.351961,-0.959964 2.830789,-1.80894 1.478829,-0.848977 3.510902,-2.023467 4.515718,-2.609979 1.347126,-0.786318 1.908718,-1.045859 2.138325,-0.988231 0.307319,0.07713 0.311392,0.104719 0.311392,2.10948 v 2.031329 l 0.373359,0.07972 c 0.797831,0.170366 2.441693,0.784786 3.088692,1.154449 2.77979,1.588235 4.752791,4.620718 5.043843,7.752339 0.048,0.51643 0.124121,0.92053 0.169164,0.898 1.283303,-0.64207 2.245681,-1.01153 3.374237,-1.29538 l 1.391609,-0.35002 v -2.138657 c 0,-1.805929 0.03483,-2.173485 0.22389,-2.362543 0.12314,-0.123139 0.323237,-0.19791 0.44466,-0.166157 0.121422,0.03175 2.13242,1.320404 4.468884,2.863666 3.991879,2.636691 4.245537,2.828331 4.205348,3.177271 -0.0371,0.32201 -0.601778,0.74427 -4.25153,3.17917 -2.314825,1.54432 -4.334012,2.81204 -4.48709,2.81716 -0.523583,0.0175 -0.604162,-0.2387 -0.604162,-1.92115 v -1.60463 l -0.373358,0.0895 c -1.133592,0.27186 -2.666574,0.99131 -3.937235,1.84778 l -0.577008,0.38893 5.64e-4,5.32232 5.65e-4,5.32232 1.031021,0.52932 c 3.113881,1.59864 5.427204,4.52072 6.318179,7.98082 0.258512,1.00393 0.297674,1.60335 0.352805,5.39954 0.04223,2.9083 0.01396,4.43066 -0.08867,4.77319 -0.08288,0.27662 -0.365885,0.69189 -0.628912,0.92283 -0.390233,0.34263 -0.596026,0.4198 -1.118401,0.41938 -0.713949,-5.1e-4 -1.399821,-0.34306 -1.683691,-0.84077 -0.132673,-0.23261 -0.199036,-1.47802 -0.259019,-4.86092 -0.07273,-4.10203 -0.108187,-4.63158 -0.361398,-5.39833 -0.487942,-1.47754 -1.460712,-2.93095 -2.629323,-3.92846 -0.376335,-0.3213 -0.740417,-0.58418 -0.808991,-0.58418 -0.07415,0 -0.124888,2.90263 -0.125189,7.16169 -5.65e-4,6.8636 -0.01154,7.17979 -0.26553,7.59635 -0.82183,1.34784 -2.988101,1.02589 -3.400428,-0.50538 -0.07849,-0.29148 -0.131458,-3.59781 -0.13037,-8.13792 9.75e-4,-4.20583 -0.02423,-7.67303 -0.05608,-7.70488 -0.122445,-0.12245 -4.084339,-1.24344 -4.152867,-1.17503 -0.03978,0.0397 -0.10288,3.90089 -0.140216,8.58038 -0.04858,6.08849 -0.112602,8.5854 -0.225126,8.77971 -0.362307,0.62565 -0.845387,0.92686 -1.572739,0.98061 -0.545838,0.0403 -0.816104,-0.0115 -1.148469,-0.22033 z m 7.285987,-24.01032 -0.0049,-3.0887 -0.341433,0.4073 c -0.908719,1.08402 -2.773073,4.29856 -2.770948,4.77769 4.08e-4,0.0875 2.616803,0.93758 3.020322,0.98135 0.056,0.006 0.09963,-1.37886 0.09694,-3.07764 z m 16.065889,24.01032 c -0.862384,-0.54183 -0.855195,-0.48377 -0.854589,-6.89698 5.13e-4,-6.28057 0.07953,-7.27259 0.746825,-9.38494 0.40202,-1.27264 1.084134,-2.77799 1.733244,-3.82511 l 0.462893,-0.74672 -1.49498,-1.60374 c -2.183919,-2.3428 -2.450395,-2.10116 3.577642,-3.24427 2.649301,-0.50239 4.994041,-0.90011 5.210522,-0.88382 0.216486,0.0163 0.454683,0.12724 0.529328,0.24654 0.09813,0.15682 -0.156885,1.54837 -0.920562,5.02337 -0.58096,2.64355 -1.107846,4.94392 -1.170864,5.11193 -0.0825,0.21996 -0.224486,0.30548 -0.507218,0.30548 -0.314145,0 -0.602178,-0.21932 -1.44069,-1.09698 -0.576429,-0.60334 -1.069895,-1.07514 -1.096593,-1.04844 -0.180823,0.18083 -1.032149,2.10081 -1.261915,2.84598 -0.558864,1.81252 -0.601865,2.4138 -0.578574,8.09015 0.01385,3.37232 -0.03074,5.66189 -0.116455,5.9802 -0.216815,0.80519 -0.809454,1.28408 -1.667588,1.34752 -0.54793,0.0405 -0.8177,-0.0111 -1.150426,-0.22017 z"
       id="path328"
       sodipodi:nodetypes="csscsssccccscssssssssccsssssssssscssscscsssscssscsscccssssscssscscssccssscccccsccccccsscsssssssssscccc" /></g></svg>
