<?xml version="1.0" encoding="UTF-8" standalone="no"?>
<!-- Created with Inkscape (http://www.inkscape.org/) -->

<svg
   width="74.846153mm"
   height="74.846153mm"
   viewBox="0 0 74.846153 74.846153"
   version="1.1"
   id="svg5"
   inkscape:version="1.2.1 (9c6d41e410, 2022-07-14)"
   sodipodi:docname="icon_cost.svg"
   xml:space="preserve"
   xmlns:inkscape="http://www.inkscape.org/namespaces/inkscape"
   xmlns:sodipodi="http://sodipodi.sourceforge.net/DTD/sodipodi-0.dtd"
   xmlns="http://www.w3.org/2000/svg"
   xmlns:svg="http://www.w3.org/2000/svg"><sodipodi:namedview
     id="namedview7"
     pagecolor="#505050"
     bordercolor="#eeeeee"
     borderopacity="1"
     inkscape:showpageshadow="0"
     inkscape:pageopacity="0"
     inkscape:pagecheckerboard="0"
     inkscape:deskcolor="#505050"
     inkscape:document-units="mm"
     showgrid="false"
     inkscape:zoom="0.73701598"
     inkscape:cx="172.31648"
     inkscape:cy="126.18451"
     inkscape:window-width="731"
     inkscape:window-height="877"
     inkscape:window-x="162"
     inkscape:window-y="1072"
     inkscape:window-maximized="0"
     inkscape:current-layer="text437" /><defs
     id="defs2" /><g
     inkscape:label="Ebene 1"
     inkscape:groupmode="layer"
     id="layer1"
     transform="translate(-34.542309,-76.173077)"><path
       style="color:#000000;fill:#000000;-inkscape-stroke:none"
       d="m 71.964844,76.173828 c -20.653368,0 -37.421875,16.768507 -37.421875,37.421872 0,20.65337 16.768507,37.42383 37.421875,37.42383 20.653368,0 37.423826,-16.77046 37.423826,-37.42383 0,-20.653365 -16.770458,-37.421872 -37.423826,-37.421872 z m 0,2.5 c 19.302269,0 34.923826,15.619606 34.923826,34.921872 0,19.30227 -15.621557,34.92383 -34.923826,34.92383 -19.302269,0 -34.921875,-15.62156 -34.921875,-34.92383 0,-19.302266 15.619606,-34.921872 34.921875,-34.921872 z"
       id="path327" /><g
       aria-label="$"
       id="text437"
       style="font-size:28.2222px;stroke-width:0.264583"><path
         id="path489"
         style="-inkscape-font-specification:'Bahnschrift, Normal';stroke-width:0.550508"
         d="m 69.485303,87.677116 v 4.923399 c -1.436438,0.231328 -2.7173,0.605961 -3.841734,1.125747 -2.00706,0.917514 -3.516783,2.303706 -4.529871,4.157848 -1.013087,1.835023 -1.52035,4.14757 -1.52035,6.93834 v 0.029 c 0,2.86723 0.564608,5.08492 1.692383,6.65234 1.127779,1.5483 2.484224,2.61803 4.070756,3.21059 1.586533,0.59256 3.660864,1.12849 6.222256,1.60637 l 0.287081,0.057 c 0.114693,0.0191 0.219465,0.0379 0.315037,0.057 0.05734,0.0191 0.104781,0.029 0.143004,0.029 0.05734,0 0.11469,0.01 0.172033,0.029 1.605648,0.30583 2.92458,0.65875 3.956784,1.06016 1.032202,0.40142 1.873617,1.00353 2.523523,1.80635 0.649903,0.80283 0.975218,1.89239 0.975218,3.26865 v 0.029 c 0,2.15998 -0.669383,3.77556 -2.007422,4.84599 -1.338039,1.05132 -3.363869,1.57626 -6.078177,1.57626 -1.96883,0 -3.795026,-0.41027 -5.477132,-1.2322 -1.662993,-0.84106 -3.182633,-2.09379 -4.558902,-3.75678 l -3.927751,4.75995 c 1.261578,1.33806 2.609184,2.45628 4.042799,3.35468 1.452727,0.87929 3.001041,1.54866 4.644918,2.00742 0.934582,0.24706 1.900593,0.42185 2.895547,0.53007 v 4.77394 h 5.849157 v -4.85028 c 1.659312,-0.20975 3.122037,-0.58013 4.386866,-1.11393 2.102636,-0.89838 3.679618,-2.23608 4.730935,-4.01376 1.051318,-1.79678 1.577339,-4.04314 1.577339,-6.73836 v -0.057 c 0,-2.73342 -0.506188,-4.89378 -1.519275,-6.48031 -1.013088,-1.58653 -2.284591,-2.73342 -3.813779,-3.44067 -1.510075,-0.72636 -3.392538,-1.33733 -5.648092,-1.83432 l -0.28708,-0.058 c -0.07647,-0.0191 -0.162482,-0.0379 -0.258053,-0.0569 -0.09558,-0.0191 -0.181595,-0.0379 -0.25805,-0.057 l -0.229022,-0.058 c -1.911486,-0.42053 -3.422284,-0.82195 -4.530946,-1.20425 -1.089544,-0.38229 -1.997148,-0.97449 -2.723512,-1.77732 -0.726365,-0.82194 -1.089189,-1.95008 -1.089189,-3.38369 v -0.0279 c 0,-2.08352 0.630794,-3.64175 1.892373,-4.673952 1.261581,-1.051315 3.153961,-1.577335 5.677123,-1.577335 1.318925,0 2.646698,0.239297 3.984737,0.717167 1.357156,0.458759 2.743348,1.165658 4.157848,2.1214 l 3.526697,-4.844914 c -1.261581,-0.841097 -2.533086,-1.539151 -3.81378,-2.093484 -1.280696,-0.573445 -2.579797,-0.993616 -3.898722,-1.261223 -0.617,-0.136105 -1.238804,-0.239241 -1.864418,-0.310736 v -4.764268 z" /></g></g></svg>
