<?xml version="1.0" encoding="UTF-8" standalone="no"?>
<!-- Created with Inkscape (http://www.inkscape.org/) -->

<svg
   width="74.846153mm"
   height="74.846153mm"
   viewBox="0 0 74.846153 74.846153"
   version="1.1"
   id="svg5"
   inkscape:version="1.2.1 (9c6d41e410, 2022-07-14)"
   sodipodi:docname="icon_annunciator.svg"
   xmlns:inkscape="http://www.inkscape.org/namespaces/inkscape"
   xmlns:sodipodi="http://sodipodi.sourceforge.net/DTD/sodipodi-0.dtd"
   xmlns="http://www.w3.org/2000/svg"
   xmlns:svg="http://www.w3.org/2000/svg">
  <sodipodi:namedview
     id="namedview7"
     pagecolor="#505050"
     bordercolor="#eeeeee"
     borderopacity="1"
     inkscape:showpageshadow="0"
     inkscape:pageopacity="0"
     inkscape:pagecheckerboard="0"
     inkscape:deskcolor="#505050"
     inkscape:document-units="mm"
     showgrid="false"
     inkscape:zoom="0.73701597"
     inkscape:cx="-324.28063"
     inkscape:cy="13.568227"
     inkscape:window-width="2560"
     inkscape:window-height="1351"
     inkscape:window-x="2551"
     inkscape:window-y="-9"
     inkscape:window-maximized="1"
     inkscape:current-layer="text5494-6-3-8-0-8-0-8-5-7-0-0" />
  <defs
     id="defs2">
    <filter
       inkscape:collect="always"
       style="color-interpolation-filters:sRGB"
       id="filter2651"
       x="-0.084438045"
       y="-0.29374497"
       width="1.1688761"
       height="1.5874899">
      <feGaussianBlur
         inkscape:collect="always"
         stdDeviation="0.41913846"
         id="feGaussianBlur2653" />
    </filter>
    <filter
       inkscape:collect="always"
       style="color-interpolation-filters:sRGB"
       id="filter2705"
       x="-0.083991151"
       y="-0.17221634"
       width="1.1679823"
       height="1.3444327">
      <feGaussianBlur
         inkscape:collect="always"
         stdDeviation="0.47819181"
         id="feGaussianBlur2707" />
    </filter>
  </defs>
  <g
     inkscape:label="Ebene 1"
     inkscape:groupmode="layer"
     id="layer1"
     transform="translate(-34.542309,-76.173077)">
    <g
       id="g560-1-6-0-2-4-9-0"
       style="display:inline;stroke:#ffffff;stroke-opacity:1"
       transform="matrix(4.3898035,0,0,4.3898035,-9.2459795,32.384787)">
      <rect
         style="fill:#000000;stroke:#858585;stroke-width:0.05"
         id="rect846-8-5-0-4-9-5-6-9-5-9-0"
         width="17"
         height="17"
         x="10"
         y="10" />
      <g
         id="g530-3-7-2-32-7-4-1"
         transform="translate(-0.50000048,-1.3997852)">
        <g
           aria-label="FAULT
FIRE"
           id="text5494-6-3-8-0-8-0-8-5-7-0-0"
           style="font-size:4.28867px;font-family:Bahnschrift;-inkscape-font-specification:'Bahnschrift, Normal';fill:#ed0000;stroke-width:0">
          <g
             id="g2670">
            <g
               id="path2039"
               style="fill:#ffcc00">
              <path
                 style="color:#000000;-inkscape-font-specification:'Bahnschrift, Normal';fill:#ffcc00;stroke:none;-inkscape-stroke:none"
                 d="M 13.154047,17.807268 V 14.76248 h 0.427192 v 3.044788 z m 0.209408,-1.281575 v -0.406251 h 1.476324 v 0.406251 z m 0,-1.356962 V 14.76248 h 1.706672 v 0.406251 z"
                 id="path2060" />
              <path
                 style="color:#000000;-inkscape-font-specification:'Bahnschrift, Normal';fill:#ffcc00;stroke:none;-inkscape-stroke:none"
                 d="M 13.154047,17.807268 V 14.76248 h 0.427192 v 3.044788 z m 0.209408,-1.281575 v -0.406251 h 1.476324 v 0.406251 z m 0,-1.356962 V 14.76248 h 1.706672 v 0.406251 z"
                 id="path2062" />
            </g>
            <g
               id="path2041"
               style="fill:#ffcc00">
              <path
                 style="color:#000000;-inkscape-font-specification:'Bahnschrift, Normal';fill:#ffcc00;stroke:none;-inkscape-stroke:none"
                 d="m 15.049187,17.807268 1.122425,-3.044788 h 0.364369 l 1.122426,3.044788 H 17.19771 l -0.843913,-2.456352 -0.843913,2.456352 z m 0.517237,-0.66801 v -0.406251 h 1.601969 v 0.406251 z"
                 id="path2066" />
              <path
                 style="color:#000000;-inkscape-font-specification:'Bahnschrift, Normal';fill:#ffcc00;stroke:none;-inkscape-stroke:none"
                 d="m 15.049187,17.807268 1.122425,-3.044788 h 0.364369 l 1.122426,3.044788 H 17.19771 l -0.843913,-2.456352 -0.843913,2.456352 z m 0.517237,-0.66801 v -0.406251 h 1.601969 v 0.406251 z"
                 id="path2068" />
            </g>
            <g
               id="path2043"
               style="fill:#ffcc00">
              <path
                 style="color:#000000;-inkscape-font-specification:'Bahnschrift, Normal';fill:#ffcc00;stroke:none;-inkscape-stroke:none"
                 d="m 18.977676,17.838679 q -0.508861,0 -0.789467,-0.295265 -0.278513,-0.297359 -0.278513,-0.83763 V 14.76248 h 0.427192 v 1.957962 q 0,0.332958 0.167526,0.515143 0.167526,0.182185 0.473262,0.182185 0.307829,0 0.475355,-0.182185 0.169621,-0.182185 0.169621,-0.515143 V 14.76248 h 0.427191 v 1.943304 q 0,0.540271 -0.280606,0.83763 -0.280606,0.295265 -0.791561,0.295265 z"
                 id="path2072" />
              <path
                 style="color:#000000;-inkscape-font-specification:'Bahnschrift, Normal';fill:#ffcc00;stroke:none;-inkscape-stroke:none"
                 d="m 18.977676,17.838679 c -0.33924,0 -0.602397,-0.09842 -0.789467,-0.295265 -0.185675,-0.198239 -0.278513,-0.47745 -0.278513,-0.83763 V 14.76248 h 0.427192 v 1.957962 c 0,0.221972 0.05584,0.393686 0.167526,0.515143 0.111684,0.121457 0.269438,0.182185 0.473262,0.182185 0.205219,0 0.363671,-0.06073 0.475355,-0.182185 0.113081,-0.121457 0.169621,-0.293171 0.169621,-0.515143 V 14.76248 h 0.427191 v 1.943304 c 0,0.36018 -0.09354,0.639391 -0.280606,0.83763 -0.18707,0.196843 -0.450925,0.295265 -0.791561,0.295265 z"
                 id="path2074" />
            </g>
            <g
               id="path2045"
               style="fill:#ffcc00">
              <path
                 style="color:#000000;-inkscape-font-specification:'Bahnschrift, Normal';fill:#ffcc00;stroke:none;-inkscape-stroke:none"
                 d="M 20.719948,17.807268 V 14.76248 h 0.427191 v 3.044788 z m 0.213595,0 v -0.406251 h 1.742273 v 0.406251 z"
                 id="path2078" />
              <path
                 style="color:#000000;-inkscape-font-specification:'Bahnschrift, Normal';fill:#ffcc00;stroke:none;-inkscape-stroke:none"
                 d="M 20.719948,17.807268 V 14.76248 h 0.427191 v 3.044788 z m 0.213595,0 v -0.406251 h 1.742273 v 0.406251 z"
                 id="path2080" />
            </g>
            <g
               id="path2047"
               style="fill:#ffcc00">
              <path
                 style="color:#000000;-inkscape-font-specification:'Bahnschrift, Normal';fill:#ffcc00;stroke:none;-inkscape-stroke:none"
                 d="m 23.4946,17.807268 v -2.795593 h 0.427191 v 2.795593 z M 22.633934,15.168731 V 14.76248 h 2.148523 v 0.406251 z"
                 id="path2084" />
              <path
                 style="color:#000000;-inkscape-font-specification:'Bahnschrift, Normal';fill:#ffcc00;stroke:none;-inkscape-stroke:none"
                 d="m 23.4946,17.807268 v -2.795593 h 0.427191 v 2.795593 z M 22.633934,15.168731 V 14.76248 h 2.148523 v 0.406251 z"
                 id="path2086" />
            </g>
          </g>
          <path
             id="path2637"
             style="color:#000000;font-size:4.28867px;font-family:Bahnschrift;-inkscape-font-specification:'Bahnschrift, Normal';mix-blend-mode:normal;fill:#ffcc00;stroke:none;stroke-width:0;stroke-opacity:1;-inkscape-stroke:none;filter:url(#filter2651)"
             d="m 13.011623,14.764186 c 0,1.055339 0,2.110677 0,3.166016 0.765844,0.235505 0.731693,-0.328984 0.669922,-0.921094 -0.194451,-0.767757 1.061114,-0.0855 1.257812,-0.462109 0.259099,-0.782276 -0.533647,-0.512708 -1.021094,-0.548438 -0.63147,-0.167734 -0.110018,-1.079777 0.563282,-0.707031 0.584752,0.288197 0.959157,-0.36023 0.567187,-0.648438 -0.679036,0 -1.358073,0 -2.037109,0 v 0.1 z m 3.02539,-0.04102 c -0.394759,1.068925 -0.787722,2.138518 -1.183594,3.207031 0.84677,0.380239 0.669494,-0.675497 1.251172,-0.667969 0.851101,-0.376661 0.718,0.630108 1.273047,0.667969 0.847471,0.171348 -0.0146,-0.850151 -0.04235,-1.288208 -0.245198,-0.666323 -0.490858,-1.332477 -0.735779,-1.998902 -0.162347,0.04696 -0.495939,-0.09719 -0.5625,0.08008 z m 1.730469,0.04102 c 0.105649,0.908792 -0.240516,1.944514 0.2421,2.769106 0.594873,0.814006 2.166814,0.415826 2.130041,-0.663789 0.02693,-0.741329 0.0022,-1.484444 0.01067,-2.226411 -0.765845,-0.235505 -0.731694,0.328984 -0.669922,0.921094 -0.111865,0.546207 0.295526,1.467055 -0.388672,1.721485 -0.715794,0.161717 -0.707476,-0.706363 -0.654297,-1.170313 -0.138164,-0.426289 0.283854,-1.41276 -0.221094,-1.472266 -0.106182,0.06246 -0.543253,-0.128781 -0.448828,0.121094 z m 2.810547,0 c 0,1.055339 0,2.110677 0,3.166016 0.732422,0 1.464844,0 2.197266,0 0.238432,-0.76161 -0.348097,-0.698258 -0.921094,-0.648438 -0.896948,0.294864 -0.546213,-0.657954 -0.60625,-1.2 -0.138404,-0.414851 0.284595,-1.391106 -0.221094,-1.438672 -0.106182,0.06246 -0.543253,-0.128781 -0.448828,0.121094 z m 1.914062,0 c -0.37087,0.900428 0.831641,0.227474 0.861328,0.727344 0,0.812891 1e-6,1.625781 0,2.438672 0.765473,0.235785 0.728655,-0.330721 0.667969,-0.921094 0.07334,-0.532514 -0.142668,-1.354387 0.1,-1.717578 0.587587,0.247857 1.047218,-0.252626 0.661328,-0.648438 -0.763541,0 -1.527083,0 -2.290625,0 v 0.1 z m -5.851562,1.849609 c -0.967025,0.504433 -0.381312,-1.046416 -0.243243,-0.703556 0.08108,0.234519 0.162162,0.469038 0.243243,0.703556 z" />
          <path
             id="path2090"
             style="color:#000000;-inkscape-font-specification:'Bahnschrift, Normal';stroke:none;-inkscape-stroke:none"
             d="M 12.289054 20.439402 L 12.289054 20.650355 L 12.289054 26.86134 L 25.71093 26.86134 L 25.71093 20.439402 L 12.289054 20.439402 z M 12.710959 20.861308 L 25.289025 20.861308 L 25.289025 26.439434 L 12.710959 26.439434 L 12.710959 20.861308 z M 18.266719 22.265581 L 18.266719 25.31239 L 18.693922 25.31239 L 18.693922 24.024541 L 19.329959 24.024541 L 19.979651 25.31239 L 20.486433 25.31239 L 19.784708 23.98075 C 19.838825 23.963915 19.889899 23.942182 19.937861 23.915651 C 20.070486 23.84166 20.173708 23.739044 20.247698 23.607815 C 20.321684 23.47519 20.358707 23.320963 20.358707 23.145061 C 20.358707 22.967763 20.321688 22.813534 20.247698 22.682307 C 20.175103 22.551078 20.072487 22.44918 19.939862 22.37659 C 19.807237 22.302603 19.652287 22.265581 19.474989 22.265581 L 18.693922 22.265581 L 18.266719 22.265581 z M 14.646028 22.267699 L 14.646028 25.31239 L 15.073231 25.31239 L 15.073231 24.030898 L 16.331768 24.030898 L 16.331768 23.624649 L 15.073231 23.624649 L 15.073231 22.673949 L 16.562144 22.673949 L 16.562144 22.267699 L 15.073231 22.267699 L 14.646028 22.267699 z M 17.085642 22.267699 L 17.085642 25.31239 L 17.512845 25.31239 L 17.512845 22.267699 L 17.085642 22.267699 z M 21.062315 22.267699 L 21.062315 25.31239 L 21.489518 25.31239 L 23.01822 25.31239 L 23.01822 24.906141 L 21.489518 24.906141 L 21.489518 24.003587 L 22.787844 24.003587 L 22.787844 23.597338 L 21.489518 23.597338 L 21.489518 22.673949 L 23.01822 22.673949 L 23.01822 22.267699 L 21.489518 22.267699 L 21.062315 22.267699 z M 18.693922 22.67183 L 19.491823 22.67183 C 19.616072 22.67183 19.715793 22.715114 19.791183 22.801674 C 19.866574 22.888229 19.904311 23.002664 19.904311 23.145061 C 19.904311 23.287458 19.866573 23.401898 19.791183 23.488448 C 19.715796 23.575 19.616072 23.618292 19.491823 23.618292 L 18.693922 23.618292 L 18.693922 22.67183 z " />
          <path
             id="path2090-7"
             style="color:#000000;font-size:4.28867px;font-family:Bahnschrift;-inkscape-font-specification:'Bahnschrift, Normal';display:inline;mix-blend-mode:normal;fill:#ed0000;stroke:none;stroke-width:0;stroke-opacity:1;-inkscape-stroke:none;filter:url(#filter2705)"
             d="m 12.16796,20.439434 c 0,2.180989 0,4.361979 0,6.542968 4.554688,0 9.109375,0 13.664063,0 0,-2.221354 0,-4.442708 0,-6.664062 -4.554688,0 -9.109375,0 -13.664063,0 v 0.1 z m 13,0.542968 c 0,1.778646 0,3.557292 0,5.335938 -4.111979,0 -8.223958,0 -12.335937,0 0,-1.778646 0,-3.557292 0,-5.335938 4.111979,0 8.223958,0 12.335937,0 z m -7.021484,1.283203 c 0,1.05599 0,2.11198 0,3.167969 0.765844,0.235506 0.731693,-0.328984 0.669922,-0.921094 0.0185,-0.920596 0.823561,0.04445 0.89066,0.526404 -0.02923,0.57513 1.338388,0.571424 0.793616,0.03993 -0.04445,-0.357113 -0.754295,-0.890379 -0.387401,-1.133521 0.723158,-0.532291 0.307741,-1.888521 -0.636719,-1.800781 -0.368821,0.09364 -1.177277,-0.178973 -1.330078,0.121093 z m -3.621094,0.002 c 0,1.055339 0,2.110678 0,3.166016 0.765844,0.235506 0.731693,-0.328984 0.669922,-0.921093 -0.192837,-0.765494 1.061973,-0.08334 1.257813,-0.460157 0.259098,-0.782276 -0.533647,-0.512707 -1.021094,-0.548437 -0.630965,-0.167661 -0.110947,-1.081989 0.563281,-0.708985 0.584752,0.288197 0.959158,-0.36023 0.567188,-0.648437 -0.679037,0 -1.358073,0 -2.03711,0 v 0.1 z m 2.439453,0 c 0,1.055339 0,2.110678 0,3.166016 0.765845,0.235506 0.731694,-0.328984 0.669922,-0.921094 0,-0.788671 0,-1.577343 0,-2.366015 -0.179079,0.06435 -0.70346,-0.143743 -0.669922,0.121093 z m 3.976563,0 c 0,1.055339 0,2.110678 0,3.166016 0.733073,0 1.466146,0 2.199219,0 0.238432,-0.761656 -0.348096,-0.698305 -0.921094,-0.648484 -0.772502,0.400171 -0.888947,-0.953538 -0.108203,-0.660156 0.587492,0.234095 1.101754,-0.222019 0.698828,-0.648438 -0.54512,-0.05449 -1.473344,0.274125 -1.198828,-0.6 0.304487,-0.265826 1.259494,0.11887 1.529297,-0.181641 0.259098,-0.782276 -0.533647,-0.512707 -1.021094,-0.548437 -0.300577,0.09105 -1.098212,-0.172453 -1.178125,0.121094 z m -1.390625,0.529297 c 0.494417,0.180537 0.132453,0.94305 -0.358594,0.701175 -0.723614,0.129053 -0.428761,-1.134598 0.3,-0.705078 l -0.0098,-0.002 z" />
        </g>
      </g>
    </g>
  </g>
</svg>
