<?xml version="1.0" encoding="UTF-8" standalone="no"?>
<!-- Created with Inkscape (http://www.inkscape.org/) -->

<svg
   width="74.846153mm"
   height="74.846153mm"
   viewBox="0 0 74.846153 74.846153"
   version="1.1"
   id="svg5"
   inkscape:version="1.2.1 (9c6d41e410, 2022-07-14)"
   sodipodi:docname="icon_axes.svg"
   xml:space="preserve"
   xmlns:inkscape="http://www.inkscape.org/namespaces/inkscape"
   xmlns:sodipodi="http://sodipodi.sourceforge.net/DTD/sodipodi-0.dtd"
   xmlns="http://www.w3.org/2000/svg"
   xmlns:svg="http://www.w3.org/2000/svg"><sodipodi:namedview
     id="namedview7"
     pagecolor="#505050"
     bordercolor="#eeeeee"
     borderopacity="1"
     inkscape:showpageshadow="0"
     inkscape:pageopacity="0"
     inkscape:pagecheckerboard="0"
     inkscape:deskcolor="#505050"
     inkscape:document-units="mm"
     showgrid="false"
     inkscape:zoom="2.9480639"
     inkscape:cx="93.959972"
     inkscape:cy="67.50193"
     inkscape:window-width="2560"
     inkscape:window-height="1351"
     inkscape:window-x="2551"
     inkscape:window-y="-9"
     inkscape:window-maximized="1"
     inkscape:current-layer="layer1" /><defs
     id="defs2" /><g
     inkscape:label="Ebene 1"
     inkscape:groupmode="layer"
     id="layer1"
     transform="translate(-34.542309,-76.173077)"><path
       style="color:#000000;fill:#000000;-inkscape-stroke:none"
       d="m 71.964844,76.173828 c -20.653368,0 -37.421875,16.768507 -37.421875,37.421872 0,20.65337 16.768507,37.42383 37.421875,37.42383 20.653368,0 37.423826,-16.77046 37.423826,-37.42383 0,-20.653365 -16.770458,-37.421872 -37.423826,-37.421872 z m 0,2.5 c 19.302269,0 34.923826,15.619606 34.923826,34.921872 0,19.30227 -15.621557,34.92383 -34.923826,34.92383 -19.302269,0 -34.921875,-15.62156 -34.921875,-34.92383 0,-19.302266 15.619606,-34.921872 34.921875,-34.921872 z"
       id="path327" /><path
       id="path4710"
       style="fill:#000000;stroke-width:0.0918961"
       d="m 71.476106,87.929039 c -0.987764,0.03773 -2.100524,0.248779 -2.781421,1.019699 v 17.711872 c 1.24288,1.24817 3.201087,1.0417 4.806819,0.8937 0.718787,-0.21076 1.969533,-0.49342 1.738389,-1.49105 V 88.948738 c -0.919216,-1.018399 -2.48966,-1.056516 -3.763787,-1.019699 z m -6.881219,8.198575 c -4.307565,0.923054 -8.810242,2.480024 -11.754454,5.928536 -1.207136,1.41343 -1.925323,3.24777 -1.766351,5.12061 0.0086,4.0719 -0.124716,8.15191 0.08099,12.21881 0.418871,2.47495 2.276398,4.45779 4.28119,5.84364 0.681769,0.60375 1.846504,0.82995 2.135069,1.77339 -0.373588,1.15346 -1.223604,2.12053 -1.797442,3.19132 -0.3145,0.64434 -0.88049,1.08277 -1.593,1.17682 -1.466982,0.38932 -2.196495,2.356 -1.152119,3.5189 1.422014,1.6122 4.667049,1.40854 5.538925,-0.68381 0.470525,-0.98298 -0.61302,-1.84889 -0.376736,-2.78929 1.700735,-3.02153 3.588371,-5.93711 5.18589,-9.01076 0.336227,-1.15148 -1.22685,-1.90514 -2.055733,-1.16436 -0.846243,0.91418 -1.310228,2.00811 -1.988063,3.04743 -2.120491,-1.03785 -4.354018,-2.39624 -5.376842,-4.61868 -0.47035,-1.81184 -0.173038,-3.72558 -0.264763,-5.57925 0.105958,-0.51585 -0.227424,-1.94506 0.186462,-1.82443 3.863544,3.32773 9.002077,4.66579 13.967455,5.21246 6.211894,0.56968 12.707547,-0.008 18.399861,-2.7083 1.47059,-0.67567 2.78064,-1.63806 4.01714,-2.67153 -0.0556,2.38547 0.0256,4.80279 -0.11955,7.16851 -0.55169,1.45981 -1.68432,2.55621 -2.82987,3.56517 0.45406,0.71733 0.87669,1.59675 1.36271,2.21674 2.09953,-1.43686 3.90793,-3.6317 4.20946,-6.2176 -0.0419,-4.47296 0.0943,-8.95387 -0.10503,-13.42169 -0.81381,-3.55584 -4.03062,-5.898754 -7.1836,-7.324158 -2.257677,-1.029912 -4.671521,-1.689587 -7.11082,-2.120149 0.01216,0.8828 0.02367,1.765607 0.035,2.648418 3.42938,0.694706 6.97503,1.757679 9.64864,4.116129 1.246,1.12402 2.32386,2.71703 1.99778,4.47487 -0.54785,2.44327 -2.81234,4.01256 -4.91207,5.09334 -4.995083,2.4163 -10.702597,3.0054 -16.185171,2.62401 -4.492297,-0.39574 -9.186822,-1.35685 -12.833222,-4.16996 -1.5428,-1.20611 -3.030864,-3.15555 -2.370742,-5.21983 0.937528,-2.55911 3.455148,-4.08914 5.81012,-5.18571 1.830383,-0.819542 3.772572,-1.360473 5.737915,-1.737516 0.01135,-0.881256 0.0228,-1.762508 0.035,-2.643751 -0.284676,0.05056 -0.569352,0.10112 -0.854027,0.151671 z m 17.115546,24.764456 c -0.906578,0.0348 -1.556579,1.15753 -0.910449,1.89188 0.472324,0.87148 0.993099,1.71529 1.491467,2.57193 -1.859462,0.61864 -3.790375,1.01148 -5.740183,1.19937 -0.0019,0.8735 3.73e-4,1.74698 0.01171,2.62042 2.284177,-0.2965 4.349597,-0.87151 6.568465,-1.36943 0.992893,-0.11553 1.135373,1.18222 1.653083,1.76861 0.37188,0.67129 0.8635,1.36817 1.26251,1.948 -0.0203,0.8551 -1.04642,1.338 -0.9262,2.26862 -0.0561,1.68537 1.90324,2.5358 3.35449,2.32677 1.3773,-0.0456 3.09541,-1.22622 2.73793,-2.77601 -0.23,-0.98831 -0.85181,-1.97862 -1.94013,-2.11936 -0.8342,-0.1006 -0.9378,-1.1382 -1.42013,-1.69176 -1.68247,-2.7662 -3.29581,-5.57827 -5.08082,-8.27969 -0.280517,-0.26655 -0.677129,-0.39976 -1.061701,-0.35935 z m -9.982319,1.66139 c -1.107968,0.0913 -1.106996,1.36524 -1.057034,2.19806 -0.08247,0.64706 0.158372,1.64124 -0.12385,2.07547 -1.844771,-0.1049 -3.707982,-0.27135 -5.504328,-0.67776 -0.530922,0.7724 -0.999199,1.58552 -1.488715,2.38475 2.213391,0.52736 4.632446,0.7814 6.958222,0.95903 0.237632,1.54262 0.187572,3.13113 0.08634,4.68315 -0.212164,0.67131 -1.090634,0.78919 -1.365044,1.46071 -0.931959,1.40486 0.299162,3.23643 1.81727,3.4952 1.649792,0.52415 4.028741,-0.4442 3.94935,-2.41526 0.04268,-1.02091 -0.80766,-1.90499 -1.736825,-2.21397 -0.03285,-3.70242 0.07188,-7.41044 -0.07467,-11.10936 -0.115277,-0.66168 -0.863136,-0.93209 -1.460713,-0.84002 z m -16.373521,9.28696 c 1.192395,-0.0108 2.876006,0.67089 2.714368,2.10488 -0.206272,1.14052 -1.674706,1.65958 -2.716775,1.44452 -1.03395,-0.2895 -2.46496,-0.96864 -2.186329,-2.28002 0.168711,-0.98499 1.355777,-1.21182 2.188736,-1.26938 z m 33.052723,0.005 c 1.10675,-0.0301 2.6898,0.89579 2.18173,2.17241 -0.82173,1.69228 -3.81297,1.96341 -4.55109,0.0688 -0.34046,-1.27643 1.27951,-2.25369 2.36936,-2.24124 z m -16.389858,3.12444 c 1.165972,-0.0119 2.740352,1.03612 2.209736,2.34508 -0.860523,1.77242 -4.036434,1.68212 -4.60848,-0.27302 -0.219307,-1.27417 1.312213,-2.09888 2.398744,-2.07206 z"
       sodipodi:nodetypes="cccccccsccccccccccccccccccccccccccccccccccccssscccccccccccccssscccccccccccsscccccccccccccc" /></g></svg>
